<svg width="342" height="342" viewBox="0 0 342 342" fill="none" xmlns="http://www.w3.org/2000/svg">
    <g clip-path="url(#clip0_405_2)">
        <path fill-rule="evenodd" clip-rule="evenodd"
            d="M342 171C342 258.98 275.56 331.44 190.11 340.94H151.89C66.44 331.44 0 258.98 0 171C0 170.65 0 170.29 0 169.94C0.58 75.99 76.92 0 171 0C265.08 0 341.42 75.99 341.99 169.94C341.99 170.29 341.99 170.65 341.99 171H342Z"
            fill="#F41818" />
        <path d="M341.99 169.94H0C0.58 75.99 76.92 0 171 0C265.08 0 341.42 75.99 341.99 169.94Z"
            fill="white" />
        <path
            d="M270.75 169.94C270.75 225.03 226.09 269.69 171 269.69C115.91 269.69 71.25 225.03 71.25 169.94C71.25 114.85 115.91 70.1899 171 70.1899C226.09 70.1899 270.75 114.85 270.75 169.94Z"
            fill="#272CA7" />
        <path
            d="M237.5 103.44C220.49 86.4199 196.97 75.8899 171 75.8899C119.06 75.8899 76.9502 118 76.9502 169.94C76.9502 221.88 119.06 263.99 171 263.99C222.94 263.99 265.05 221.88 265.05 169.94C265.05 143.97 254.52 120.45 237.5 103.44ZM233.47 232.41C217.49 248.4 195.39 258.29 171 258.29C146.61 258.29 124.52 248.4 108.53 232.41C92.5402 216.42 82.6502 194.33 82.6502 169.94C82.6502 145.55 92.5402 123.46 108.53 107.47C124.52 91.4799 146.61 81.5899 171 81.5899C219.8 81.5899 259.35 121.15 259.35 169.94C259.35 194.34 249.46 216.42 233.47 232.41Z"
            fill="white" />
        <path
            d="M151.31 106.68C150.06 106.68 149.04 107.7 149.04 108.96C149.04 109.59 149.29 110.16 149.7 110.57C150.11 110.98 150.68 111.24 151.31 111.24C151.94 111.24 152.51 110.98 152.92 110.57C153.33 110.16 153.59 109.59 153.59 108.96C153.59 107.7 152.57 106.68 151.32 106.68H151.31ZM151.31 106.68C150.06 106.68 149.04 107.7 149.04 108.96C149.04 109.59 149.29 110.16 149.7 110.57C150.11 110.98 150.68 111.24 151.31 111.24C151.94 111.24 152.51 110.98 152.92 110.57C153.33 110.16 153.59 109.59 153.59 108.96C153.59 107.7 152.57 106.68 151.32 106.68H151.31ZM158.54 101.7C156.69 99.85 154.13 98.7 151.31 98.7C145.67 98.7 141.09 103.29 141.09 108.97C141.09 111.8 142.24 114.37 144.08 116.23C145.93 118.08 148.49 119.23 151.31 119.23C154.13 119.23 156.69 118.08 158.54 116.23C160.39 114.37 161.53 111.8 161.53 108.97C161.53 106.14 160.38 103.57 158.54 101.71V101.7ZM151.31 115.81C149.43 115.81 147.72 115.05 146.49 113.8C145.26 112.56 144.49 110.85 144.49 108.96C144.49 107.07 145.25 105.36 146.49 104.12C147.72 102.88 149.43 102.11 151.31 102.11C155.08 102.11 158.13 105.18 158.13 108.96C158.13 112.74 155.08 115.81 151.31 115.81ZM151.31 106.68C150.06 106.68 149.04 107.7 149.04 108.96C149.04 109.59 149.29 110.16 149.7 110.57C150.11 110.98 150.68 111.24 151.31 111.24C151.94 111.24 152.51 110.98 152.92 110.57C153.33 110.16 153.59 109.59 153.59 108.96C153.59 107.7 152.57 106.68 151.32 106.68H151.31ZM151.31 106.68C150.06 106.68 149.04 107.7 149.04 108.96C149.04 109.59 149.29 110.16 149.7 110.57C150.11 110.98 150.68 111.24 151.31 111.24C151.94 111.24 152.51 110.98 152.92 110.57C153.33 110.16 153.59 109.59 153.59 108.96C153.59 107.7 152.57 106.68 151.32 106.68H151.31ZM183.87 102.57C180.84 112.4 200.83 121.1 207.53 109.56C197.96 111.38 190.94 110.41 183.87 102.57ZM151.31 106.68C150.06 106.68 149.04 107.7 149.04 108.96C149.04 109.59 149.29 110.16 149.7 110.57C150.11 110.98 150.68 111.24 151.31 111.24C151.94 111.24 152.51 110.98 152.92 110.57C153.33 110.16 153.59 109.59 153.59 108.96C153.59 107.7 152.57 106.68 151.32 106.68H151.31ZM143.5 130.41C143.5 130.41 141.06 122.72 131.43 122.54C130.43 122.52 129.36 122.59 128.2 122.75C128.2 122.75 113.16 122.64 107.9 146.5C107.9 146.5 107.37 154.5 100.64 152.95C100.64 152.95 99.9998 152.35 101.28 150.73C101.28 150.73 103.5 144.98 97.2198 144.53C97.2198 144.53 89.2898 147.36 94.2898 154.01C94.2898 154.01 97.0298 158.43 107 154.24C107 154.24 110.74 153.18 109.33 159.12C109.33 159.12 107 165.98 104.82 162.99C104.82 162.99 101.06 156.73 96.2498 161.03C96.2498 161.03 91.5898 166.92 99.4298 169.94C99.7698 170.08 100.14 170.2 100.54 170.32C100.54 170.32 101.58 170.59 103.29 169.94C104.57 169.44 106.23 168.44 108.1 166.39L110.99 161.59C110.99 161.59 112.01 159.1 113.93 164.01C113.93 164.01 115.24 166.57 115.25 169.94C115.26 171.61 114.95 173.49 114 175.34C114 175.34 112.23 178.6 110.61 177C110.61 177 105.05 168.32 100.85 176.73C100.85 176.73 99.5198 184 106.57 184.13C106.57 184.13 110.77 184.77 114.92 178.28C114.92 178.28 117.26 174.22 117.15 173.02C117.15 173.02 118.59 170.56 120.18 173.27C120.18 173.27 124.35 179.97 122.89 182.37C122.89 182.37 121.96 185.01 118.8 183.86C118.8 183.86 113.85 182.74 113.35 187.36C113.35 187.36 113.3 192.56 119.23 192.4C119.23 192.4 123 192.75 124.95 188.02C124.95 188.02 126.89 183.29 126.31 182.44C126.31 182.44 127.19 180.17 128.99 183.24C128.99 183.24 132.36 189.07 131.38 192.75C131.38 192.75 131.16 195.13 126.57 193.13C126.57 193.13 120.96 192.83 122.71 198.52C122.71 198.52 125.18 203.22 131 198.81C131 198.81 135.39 194.22 133.37 187.2C131.78 181.08 127.08 175.44 122.65 169.93C118.87 165.22 115.28 160.62 113.99 155.93C113.99 155.93 108.35 145.66 121.74 130.1C132.68 119.25 147.25 132.82 138.51 136.36C135.79 137.4 137.24 139.57 138.66 139.35C138.66 139.35 145.65 138.97 143.51 130.4L143.5 130.41ZM244.79 144.53C238.51 144.98 240.73 150.73 240.73 150.73C242.01 152.35 241.37 152.95 241.37 152.95C234.64 154.5 234.11 146.5 234.11 146.5C228.85 122.63 213.81 122.75 213.81 122.75C212.66 122.59 211.58 122.53 210.58 122.54C200.95 122.72 198.51 130.41 198.51 130.41C196.37 138.98 203.36 139.36 203.36 139.36C204.78 139.58 206.23 137.42 203.51 136.37C194.77 132.83 209.33 119.25 220.28 130.11C233.66 145.67 228.03 155.94 228.03 155.94C226.74 160.64 223.15 165.24 219.37 169.94C214.94 175.44 210.24 181.09 208.65 187.21C206.63 194.23 211.02 198.82 211.02 198.82C216.85 203.23 219.32 198.53 219.32 198.53C221.07 192.84 215.46 193.14 215.46 193.14C210.86 195.14 210.65 192.76 210.65 192.76C209.66 189.08 213.04 183.25 213.04 183.25C214.85 180.18 215.72 182.45 215.72 182.45C215.13 183.31 217.08 188.03 217.08 188.03C219.02 192.76 222.8 192.41 222.8 192.41C228.73 192.57 228.67 187.37 228.67 187.37C228.17 182.75 223.22 183.87 223.22 183.87C220.06 185.02 219.13 182.38 219.13 182.38C217.67 179.97 221.84 173.28 221.84 173.28C223.44 170.58 224.87 173.03 224.87 173.03C224.77 174.23 227.1 178.29 227.1 178.29C231.25 184.78 235.45 184.14 235.45 184.14C242.5 184.01 241.17 176.74 241.17 176.74C236.97 168.33 231.41 177.01 231.41 177.01C229.79 178.61 228.02 175.35 228.02 175.35C227.07 173.49 226.76 171.62 226.77 169.95C226.79 166.58 228.1 164.02 228.1 164.02C230.02 159.11 231.03 161.6 231.03 161.6L233.93 166.4C235.81 168.44 237.46 169.46 238.74 169.95C240.44 170.6 241.49 170.33 241.49 170.33C241.88 170.21 242.25 170.08 242.6 169.95C250.44 166.93 245.78 161.04 245.78 161.04C240.97 156.74 237.21 163 237.21 163C235.03 165.99 232.7 159.13 232.7 159.13C231.29 153.18 235.03 154.25 235.03 154.25C244.99 158.44 247.74 154.02 247.74 154.02C252.74 147.37 244.81 144.54 244.81 144.54L244.79 144.53ZM181.42 196.61C175.46 185.5 178.87 181.65 178.87 181.65C179.57 177.77 179.75 173.79 179.61 169.94C179.06 155.68 174 143.1 174 143.1C174 143.1 172.26 140.04 171.01 140.04C169.76 140.04 168.02 143.1 168.02 143.1C168.02 143.1 162.95 155.68 162.4 169.94C162.26 173.79 162.44 177.77 163.14 181.65C163.14 181.65 166.54 185.5 160.59 196.61C160.59 196.61 160.22 198.21 164.47 198.47L171.01 198.74L177.55 198.47C181.8 198.21 181.43 196.61 181.43 196.61H181.42ZM148.5 141.76C148.5 141.76 147.46 141.53 145.93 141.52C141.34 141.5 132.32 143.54 133.56 160.08C134.68 163.19 136.97 166.52 139.37 169.94C142.97 175.08 146.81 180.42 147.33 185.5L148.5 193.88C148.5 193.88 149.19 195.68 150.44 193.01C150.44 193.01 154.08 179.88 151.26 175.24C151.26 175.24 149.92 172.82 147.81 169.94C146.64 168.34 145.22 166.59 143.66 165.04C143.66 165.04 137.01 153.66 143.08 150.52C149.38 158.08 154.42 156.13 156.26 151.21C156.26 151.21 158.23 143.69 148.5 141.76ZM196.06 141.52C194.53 141.52 193.49 141.76 193.49 141.76C183.76 143.69 185.73 151.21 185.73 151.21C187.58 156.13 192.62 158.08 198.92 150.52C204.98 153.67 198.33 165.04 198.33 165.04C196.77 166.58 195.35 168.33 194.18 169.94C192.07 172.82 190.73 175.24 190.73 175.24C187.91 179.89 191.55 193.01 191.55 193.01C192.81 195.67 193.49 193.88 193.49 193.88L194.66 185.5C195.18 180.43 199.03 175.09 202.62 169.94C205.01 166.52 207.3 163.19 208.43 160.08C209.67 143.54 200.64 141.5 196.06 141.52ZM204.03 200.5C197.49 200.82 199.12 208.68 199.12 208.68C199.12 208.68 193.88 215.48 171 215.55C148.12 215.48 142.88 208.68 142.88 208.68C142.88 208.68 144.52 200.82 137.98 200.5C137.98 200.5 126.28 201.73 132.45 211.07C132.45 211.07 137.62 221.33 171 221.93C204.39 221.33 209.56 211.07 209.56 211.07C215.73 201.73 204.03 200.5 204.03 200.5ZM132.71 219.78C132.2 219.27 131.48 218.95 130.7 218.95C129.13 218.95 127.86 220.23 127.86 221.8C127.86 223.37 129.13 224.65 130.7 224.65C132.27 224.65 133.54 223.38 133.54 221.8C133.54 221.01 133.22 220.3 132.71 219.78ZM211.3 218.95C209.73 218.95 208.46 220.23 208.46 221.8C208.46 222.59 208.78 223.3 209.3 223.82C209.82 224.34 210.52 224.65 211.31 224.65C212.1 224.65 212.8 224.33 213.32 223.82C213.83 223.3 214.15 222.59 214.15 221.8C214.15 220.23 212.88 218.95 211.31 218.95H211.3ZM142.04 225.25C141.32 224.53 140.32 224.08 139.23 224.08C137.03 224.08 135.25 225.87 135.25 228.08C135.25 229.18 135.69 230.18 136.41 230.9C137.13 231.62 138.13 232.07 139.23 232.07C140.33 232.07 141.32 231.63 142.04 230.9C142.76 230.18 143.2 229.18 143.2 228.08C143.2 226.98 142.76 225.98 142.04 225.25ZM205.59 225.25C204.87 224.53 203.88 224.08 202.78 224.08C200.59 224.08 198.81 225.87 198.81 228.08C198.81 229.18 199.25 230.18 199.97 230.9C200.69 231.62 201.68 232.07 202.78 232.07C203.88 232.07 204.87 231.63 205.59 230.9C206.31 230.18 206.76 229.18 206.76 228.08C206.76 226.98 206.32 225.98 205.59 225.25ZM153.43 226.94C150.61 226.94 148.32 229.24 148.32 232.07C148.32 233.49 148.89 234.77 149.81 235.7C150.73 236.63 152.01 237.2 153.42 237.2C156.25 237.2 158.53 234.9 158.53 232.06C158.53 229.22 156.24 226.93 153.42 226.93L153.43 226.94ZM188.59 226.94C185.76 226.94 183.48 229.24 183.48 232.07C183.48 233.49 184.05 234.77 184.97 235.7C185.9 236.63 187.18 237.2 188.59 237.2C191.41 237.2 193.7 234.9 193.7 232.06C193.7 229.22 191.41 226.93 188.59 226.93V226.94ZM170.98 228.65C167.53 228.65 164.73 231.46 164.73 234.92C164.73 238.38 167.53 241.2 170.98 241.2C174.43 241.2 177.23 238.39 177.23 234.92C177.23 231.45 174.43 228.65 170.98 228.65Z"
            fill="white" />
    </g>
    <defs>
        <clipPath id="clip0_405_2">
            <rect width="342" height="342" fill="white" />
        </clipPath>
    </defs>
</svg>