<svg width="513" height="342" viewBox="0 0 513 342" fill="none" xmlns="http://www.w3.org/2000/svg">
<g clip-path="url(#clip0_402_8)">
<path fill-rule="evenodd" clip-rule="evenodd" d="M0 0H513V342H0V0Z" fill="#F41818"/>
<path d="M0 0H513V171H0V0Z" fill="white"/>
<path d="M356.25 171C356.25 184.099 353.67 197.07 348.657 209.173C343.644 221.275 336.297 232.271 327.034 241.534C317.771 250.797 306.775 258.144 294.673 263.157C282.57 268.17 269.599 270.75 256.5 270.75C230.045 270.75 204.673 260.241 185.966 241.534C167.259 222.827 156.75 197.455 156.75 171C156.75 144.545 167.259 119.173 185.966 100.466C204.673 81.7593 230.045 71.25 256.5 71.25C269.599 71.25 282.57 73.8301 294.673 78.843C306.775 83.8559 317.771 91.2035 327.034 100.466C336.297 109.729 343.644 120.725 348.657 132.827C353.67 144.93 356.25 157.901 356.25 171Z" fill="#272CA7"/>
<path d="M256.5 76.95C231.557 76.95 207.635 86.8588 189.997 104.497C172.359 122.134 162.45 146.056 162.45 171C162.45 195.944 172.359 219.866 189.997 237.503C207.635 255.141 231.557 265.05 256.5 265.05C268.851 265.05 281.081 262.617 292.492 257.891C303.902 253.164 314.27 246.237 323.004 237.503C331.737 228.77 338.665 218.402 343.391 206.991C348.118 195.581 350.55 183.351 350.55 171C350.55 146.056 340.641 122.134 323.004 104.497C305.366 86.8588 281.444 76.95 256.5 76.95ZM256.5 82.65C279.932 82.65 302.404 91.9582 318.973 108.527C335.542 125.096 344.85 147.568 344.85 171C344.85 194.432 335.542 216.904 318.973 233.473C302.404 250.042 279.932 259.35 256.5 259.35C233.068 259.35 210.596 250.042 194.027 233.473C177.458 216.904 168.15 194.432 168.15 171C168.15 147.568 177.458 125.096 194.027 108.527C210.596 91.9582 233.068 82.65 256.5 82.65Z" fill="white"/>
<path d="M236.812 99.75C235.469 99.75 234.14 100.016 232.9 100.531C231.66 101.047 230.533 101.803 229.584 102.757C228.634 103.71 227.881 104.842 227.368 106.087C226.854 107.333 226.59 108.667 226.59 110.016C226.59 111.364 226.854 112.699 227.368 113.944C227.881 115.19 228.634 116.321 229.584 117.274C230.533 118.228 231.66 118.984 232.9 119.5C234.14 120.016 235.469 120.281 236.812 120.281C238.154 120.281 239.483 120.016 240.724 119.5C241.964 118.984 243.091 118.228 244.04 117.274C244.989 116.321 245.742 115.19 246.256 113.944C246.77 112.699 247.034 111.364 247.034 110.016C247.034 108.667 246.77 107.333 246.256 106.087C245.742 104.842 244.989 103.71 244.04 102.757C243.091 101.803 241.964 101.047 240.724 100.531C239.483 100.016 238.154 99.75 236.812 99.75ZM236.812 103.172C238.619 103.172 240.352 103.893 241.63 105.177C242.908 106.46 243.626 108.201 243.626 110.016C243.626 110.914 243.45 111.804 243.108 112.635C242.765 113.465 242.263 114.22 241.631 114.855C240.998 115.491 240.247 115.995 239.42 116.339C238.593 116.683 237.707 116.86 236.812 116.86C235.917 116.86 235.03 116.683 234.204 116.339C233.377 115.995 232.625 115.491 231.992 114.856C231.359 114.22 230.857 113.465 230.515 112.635C230.172 111.804 229.996 110.914 229.996 110.016C229.996 109.117 230.173 108.227 230.515 107.397C230.858 106.566 231.36 105.812 231.993 105.176C232.626 104.541 233.377 104.037 234.204 103.693C235.031 103.349 235.917 103.172 236.812 103.172ZM269.369 103.625C266.338 113.451 286.33 122.154 293.03 110.62C283.459 112.436 276.441 111.475 269.369 103.625ZM236.812 107.734C236.513 107.734 236.218 107.793 235.942 107.908C235.667 108.023 235.416 108.191 235.205 108.402C234.994 108.614 234.827 108.866 234.713 109.142C234.598 109.419 234.54 109.716 234.54 110.016C234.54 110.315 234.598 110.612 234.713 110.889C234.827 111.165 234.994 111.417 235.205 111.629C235.416 111.841 235.667 112.009 235.942 112.123C236.218 112.238 236.513 112.297 236.812 112.297C237.414 112.297 237.992 112.056 238.418 111.628C238.844 111.201 239.083 110.62 239.083 110.016C239.083 109.411 238.844 108.831 238.418 108.403C237.992 107.975 237.414 107.735 236.812 107.734ZM216.921 123.6C215.924 123.581 214.85 123.643 213.693 123.802C213.693 123.802 198.654 123.689 193.39 147.553C193.39 147.553 192.863 155.558 186.133 154.01C186.133 154.01 185.495 153.406 186.773 151.783C186.773 151.783 188.991 146.042 182.712 145.589C182.712 145.589 174.779 148.421 179.78 155.067C179.78 155.067 182.524 159.485 192.488 155.294C192.488 155.294 196.229 154.236 194.819 160.183C194.819 160.183 192.487 167.037 190.307 164.054C190.307 164.054 186.547 157.786 181.734 162.09C181.734 162.09 176.658 168.51 186.021 171.38C186.021 171.38 189.217 172.21 193.579 167.452L196.473 162.657C196.473 162.657 197.489 160.164 199.407 165.073C199.407 165.073 202.339 170.813 199.481 176.402C199.481 176.402 197.716 179.666 196.095 178.064C196.095 178.064 190.539 169.386 186.338 177.797C186.338 177.797 185.008 185.06 192.053 185.193C192.053 185.193 196.254 185.833 200.402 179.345C200.402 179.345 202.742 175.288 202.635 174.086C202.635 174.086 204.071 171.63 205.667 174.326C205.667 174.326 209.84 181.028 208.377 183.431C208.377 183.431 207.448 186.074 204.284 184.926C204.284 184.926 199.338 183.805 198.833 188.424C198.833 188.424 198.78 193.63 204.709 193.469C204.709 193.469 208.484 193.817 210.425 189.091C210.425 189.091 212.366 184.365 211.781 183.511C211.781 183.511 212.658 181.241 214.466 184.312C214.466 184.312 217.843 190.132 216.86 193.817C216.86 193.817 216.646 196.193 212.047 194.191C212.047 194.191 206.437 193.898 208.192 199.585C208.192 199.585 210.664 204.283 216.487 199.877C216.487 199.877 220.874 195.286 218.853 188.264C215.907 176.93 202.272 167.185 199.481 156.993C199.481 156.993 193.841 146.722 207.226 131.166C218.173 120.317 232.738 133.895 223.996 137.433C221.271 138.475 222.725 140.644 224.147 140.417C224.147 140.417 231.14 140.039 228.997 131.467C228.997 131.467 226.557 123.777 216.921 123.6ZM296.08 123.6C286.443 123.777 284.004 131.467 284.004 131.467C281.861 140.039 288.854 140.417 288.854 140.417C290.277 140.644 291.73 138.475 289.005 137.433C280.263 133.895 294.827 120.317 305.774 131.166C319.159 146.722 313.519 156.993 313.519 156.993C310.728 167.185 297.094 176.93 294.147 188.264C292.126 195.286 296.514 199.877 296.514 199.877C302.336 204.283 304.809 199.585 304.809 199.585C306.564 193.898 300.954 194.191 300.954 194.191C296.354 196.193 296.141 193.817 296.141 193.817C295.157 190.132 298.534 184.312 298.534 184.312C300.342 181.241 301.22 183.511 301.22 183.511C300.635 184.365 302.576 189.091 302.576 189.091C304.516 193.817 308.291 193.469 308.291 193.469C314.22 193.63 314.167 188.424 314.167 188.424C313.662 183.805 308.716 184.926 308.716 184.926C305.553 186.074 304.623 183.431 304.623 183.431C303.161 181.028 307.335 174.326 307.335 174.326C308.93 171.63 310.365 174.086 310.365 174.086C310.259 175.288 312.598 179.345 312.598 179.345C316.746 185.833 320.947 185.193 320.947 185.193C327.992 185.06 326.662 177.797 326.662 177.797C322.462 169.386 316.906 178.064 316.906 178.064C315.284 179.666 313.519 176.402 313.519 176.402C310.662 170.813 313.595 165.073 313.595 165.073C315.512 160.164 316.527 162.657 316.527 162.657L319.422 167.452C323.783 172.21 326.98 171.38 326.98 171.38C336.342 168.51 331.266 162.09 331.266 162.09C326.453 157.786 322.694 164.054 322.694 164.054C320.513 167.037 318.182 160.183 318.182 160.183C316.772 154.236 320.513 155.294 320.513 155.294C330.477 159.485 333.221 155.067 333.221 155.067C338.222 148.421 330.288 145.589 330.288 145.589C324.009 146.042 326.227 151.783 326.227 151.783C327.506 153.406 326.867 154.01 326.867 154.01C320.137 155.558 319.61 147.553 319.61 147.553C314.346 123.689 299.307 123.802 299.307 123.802C298.151 123.643 297.076 123.581 296.08 123.6ZM256.5 141.098C255.254 141.098 253.51 144.158 253.51 144.158C253.51 144.158 245.334 164.448 248.63 182.711C248.63 182.711 252.034 186.555 246.079 197.662C246.079 197.662 245.706 199.264 249.96 199.531L256.5 199.798L263.041 199.531C267.295 199.264 266.922 197.662 266.922 197.662C260.966 186.555 264.37 182.711 264.37 182.711C267.667 164.448 259.49 144.158 259.49 144.158C259.49 144.158 257.747 141.098 256.5 141.098ZM231.441 142.581C226.853 142.564 217.83 144.596 219.066 161.136C221.887 168.916 231.957 178.105 232.837 186.555L234.007 194.939C234.007 194.939 234.693 196.735 235.952 194.073C235.952 194.073 239.591 180.947 236.773 176.301C236.773 176.301 233.529 170.428 229.169 166.103C229.169 166.103 222.522 154.728 228.584 151.578C234.886 159.146 239.926 157.197 241.771 152.272C241.771 152.272 243.738 144.743 234.007 142.821C234.007 142.821 232.971 142.587 231.441 142.581ZM281.559 142.581C280.029 142.587 278.993 142.821 278.993 142.821C269.262 144.743 271.229 152.272 271.229 152.272C273.075 157.197 278.115 159.146 284.417 151.578C290.479 154.728 283.831 166.103 283.831 166.103C279.471 170.428 276.228 176.301 276.228 176.301C273.409 180.947 277.048 194.073 277.048 194.073C278.308 196.735 278.993 194.939 278.993 194.939L280.163 186.555C281.043 178.105 291.114 168.916 293.934 161.136C295.171 144.596 286.148 142.564 281.559 142.581ZM223.474 201.561C223.474 201.561 211.775 202.789 217.943 212.134C217.943 212.134 223.112 222.392 256.5 222.996C289.889 222.392 295.058 212.134 295.058 212.134C301.226 202.789 289.527 201.561 289.527 201.561C282.986 201.881 284.624 209.743 284.624 209.743C284.624 209.743 279.381 216.544 256.5 216.612C233.619 216.544 228.376 209.743 228.376 209.743C228.376 209.743 230.014 201.881 223.474 201.561ZM216.205 220.009C215.452 220.009 214.73 220.309 214.198 220.844C213.665 221.379 213.366 222.104 213.366 222.86C213.366 223.616 213.665 224.341 214.198 224.876C214.73 225.41 215.452 225.711 216.205 225.711C216.578 225.711 216.947 225.637 217.292 225.494C217.636 225.351 217.949 225.141 218.213 224.876C218.477 224.611 218.686 224.297 218.829 223.951C218.971 223.605 219.045 223.234 219.045 222.86C219.045 222.486 218.971 222.115 218.829 221.769C218.686 221.423 218.477 221.108 218.213 220.844C217.949 220.579 217.636 220.369 217.292 220.226C216.947 220.082 216.578 220.009 216.205 220.009ZM296.795 220.009C296.423 220.009 296.053 220.082 295.709 220.226C295.364 220.369 295.051 220.579 294.787 220.844C294.524 221.108 294.314 221.423 294.172 221.769C294.029 222.115 293.955 222.486 293.955 222.86C293.955 223.234 294.029 223.605 294.172 223.951C294.314 224.297 294.524 224.611 294.787 224.876C295.051 225.141 295.364 225.351 295.709 225.494C296.053 225.637 296.423 225.711 296.795 225.711C297.548 225.711 298.27 225.41 298.803 224.876C299.335 224.341 299.634 223.616 299.634 222.86C299.634 222.104 299.335 221.379 298.803 220.844C298.27 220.309 297.548 220.009 296.795 220.009ZM224.724 225.141C224.202 225.141 223.685 225.244 223.202 225.445C222.72 225.646 222.282 225.94 221.913 226.31C221.543 226.681 221.251 227.121 221.051 227.606C220.851 228.09 220.748 228.609 220.748 229.133C220.748 229.658 220.851 230.177 221.051 230.661C221.251 231.146 221.543 231.586 221.913 231.956C222.282 232.327 222.72 232.621 223.202 232.822C223.685 233.022 224.202 233.126 224.724 233.126C225.246 233.126 225.763 233.022 226.245 232.822C226.727 232.621 227.166 232.327 227.535 231.956C227.904 231.586 228.197 231.146 228.397 230.661C228.597 230.177 228.699 229.658 228.699 229.133C228.699 228.609 228.597 228.09 228.397 227.606C228.197 227.121 227.904 226.681 227.535 226.31C227.166 225.94 226.727 225.646 226.245 225.445C225.763 225.244 225.246 225.141 224.724 225.141ZM288.277 225.141C287.755 225.141 287.238 225.244 286.755 225.445C286.273 225.646 285.835 225.94 285.465 226.31C285.096 226.681 284.803 227.121 284.604 227.606C284.404 228.09 284.301 228.609 284.301 229.133C284.301 229.658 284.404 230.177 284.604 230.661C284.803 231.146 285.096 231.586 285.465 231.956C285.835 232.327 286.273 232.621 286.755 232.822C287.238 233.022 287.755 233.126 288.277 233.126C288.799 233.126 289.316 233.022 289.798 232.822C290.28 232.621 290.719 232.327 291.088 231.956C291.457 231.586 291.75 231.146 291.949 230.661C292.149 230.177 292.252 229.658 292.252 229.133C292.252 228.609 292.149 228.09 291.949 227.606C291.75 227.121 291.457 226.681 291.088 226.31C290.719 225.94 290.28 225.646 289.798 225.445C289.316 225.244 288.799 225.141 288.277 225.141ZM238.921 227.992C238.25 227.992 237.586 228.125 236.965 228.383C236.345 228.641 235.782 229.019 235.307 229.496C234.833 229.972 234.456 230.538 234.199 231.161C233.942 231.784 233.81 232.451 233.81 233.126C233.811 234.487 234.349 235.792 235.308 236.755C236.266 237.717 237.566 238.258 238.921 238.258C240.277 238.258 241.577 237.717 242.535 236.755C243.494 235.792 244.032 234.487 244.033 233.126C244.033 232.451 243.9 231.784 243.644 231.161C243.387 230.538 243.01 229.972 242.536 229.496C242.061 229.019 241.498 228.641 240.878 228.383C240.257 228.125 239.593 227.992 238.921 227.992ZM274.08 227.992C273.409 227.992 272.744 228.125 272.124 228.383C271.504 228.641 270.94 229.019 270.466 229.496C269.991 229.972 269.615 230.538 269.358 231.161C269.101 231.784 268.969 232.451 268.969 233.126C268.969 234.487 269.508 235.792 270.466 236.755C271.425 237.717 272.725 238.258 274.08 238.258C275.435 238.257 276.735 237.717 277.693 236.754C278.651 235.792 279.19 234.487 279.19 233.126C279.19 231.764 278.652 230.459 277.694 229.496C276.735 228.533 275.435 227.992 274.08 227.992ZM256.475 229.703C254.818 229.703 253.229 230.364 252.058 231.541C250.886 232.717 250.228 234.313 250.228 235.977C250.228 237.64 250.886 239.236 252.058 240.413C253.229 241.589 254.818 242.25 256.475 242.25C258.131 242.25 259.72 241.589 260.892 240.412C262.063 239.236 262.721 237.64 262.721 235.977C262.721 234.313 262.063 232.717 260.892 231.541C259.72 230.364 258.131 229.703 256.475 229.703Z" fill="white"/>
</g>
<defs>
<clipPath id="clip0_402_8">
<rect width="513" height="342" fill="white"/>
</clipPath>
</defs>
</svg>
