<svg width="100" height="100" viewBox="0 0 100 100" fill="none" xmlns="http://www.w3.org/2000/svg">
    <path
        d="M85.9634 85.9909L81.3596 56.3486C81.2273 55.497 81.886 54.7281 82.7478 54.7281V54.7281C84.067 54.7281 85.1297 53.5799 85.1297 52.1545V34.1624C85.1297 32.7371 84.067 31.5888 82.7478 31.5888H65.211C62.4496 31.5888 60.211 29.3503 60.211 26.5888V13.5736C60.211 12.1482 59.1483 11 57.8291 11C57.8291 11 57.8291 11 57.8291 11C57.8291 11 44.4902 11 43.171 11C41.8518 11 40.7891 12.1482 40.7891 13.5736V26.5888C40.7891 29.3503 38.5505 31.5888 35.7891 31.5888H18.2523C16.933 31.5888 15.8703 32.7371 15.8703 34.1624V52.1545C15.8703 53.5799 16.933 54.7281 18.2523 54.7281V54.7281C19.1141 54.7281 19.7727 55.497 19.6405 56.3486L15.0366 85.9909C15.0092 86.1393 15 86.2878 15 86.4264C15 87.8518 16.0627 89 17.3819 89H83.6181C83.7555 89 83.893 88.9901 84.0212 88.9604C85.3221 88.7228 86.1925 87.3865 85.9634 85.9909ZM20.4148 42.5048C20.4148 39.7434 22.6534 37.5048 25.4148 37.5048H42.202C44.9634 37.5048 47.202 35.2662 47.202 32.5048V17.9159C47.202 17.3637 47.6497 16.9159 48.202 16.9159H52.7981C53.3504 16.9159 53.7981 17.3637 53.7981 17.9159V32.5048C53.7981 35.2662 56.0367 37.5048 58.7981 37.5048H75.5853C78.3467 37.5048 80.5853 39.7434 80.5853 42.5048V43.8122C80.5853 46.5736 78.3467 48.8122 75.5853 48.8122H25.4148C22.6534 48.8122 20.4148 46.5736 20.4148 43.8122V42.5048ZM66.1581 82.0711C65.6058 82.0711 65.1581 81.6233 65.1581 81.0711V66.6294C65.1581 66.1939 64.8283 65.8376 64.4252 65.8376H60.0278C59.6247 65.8376 59.2949 66.1939 59.2949 66.6294V81.0711C59.2949 81.6233 58.8472 82.0711 58.2949 82.0711H42.7052C42.1529 82.0711 41.7052 81.6233 41.7052 81.0711V66.6294C41.7052 66.1939 41.3754 65.8376 40.9723 65.8376H36.5749C36.1718 65.8376 35.842 66.1939 35.842 66.6294V81.0711C35.842 81.6233 35.3942 82.0711 34.842 82.0711H23.3396C22.7265 82.0711 22.2577 81.5244 22.3513 80.9184L25.6506 59.5588C26.0272 57.121 28.1253 55.322 30.592 55.322H71.3331C73.7998 55.322 75.8979 57.121 76.2745 59.5588L79.5738 80.9184C79.6674 81.5244 79.1986 82.0711 78.5855 82.0711H66.1581Z"
        fill="#1C274C" />
</svg>