<svg width="100" height="100" viewBox="0 0 100 100" fill="none" xmlns="http://www.w3.org/2000/svg">
    <path
        d="M50 12.4512C33.6426 12.4512 17.2608 18.2861 5.02935 30.0049L1.92876 33.0078C-0.561476 35.376 -0.634715 39.331 1.73345 41.8213C4.12602 44.3115 8.0811 44.3848 10.5713 42.0166L13.6963 39.0381C32.9834 20.5566 67.0166 20.5566 86.3038 39.0381L89.4288 42.0166C91.919 44.3848 95.8741 44.3115 98.2666 41.8213C100.635 39.331 100.562 35.376 98.0713 33.0078L94.9707 29.9805C82.7393 18.2861 66.3575 12.4512 50 12.4512ZM49.8047 37.5C39.9903 37.5732 30.2491 41.4307 23.5108 48.8281L20.3858 52.2705C19.2627 53.4912 18.6524 55.1025 18.75 56.7627C18.8233 58.4228 19.5557 59.9853 20.8008 61.1084C22.0215 62.2314 23.6329 62.8174 25.293 62.7197C26.9532 62.6465 28.5157 61.9141 29.6387 60.6689L32.7393 57.251C40.7227 48.4863 58.7403 47.9004 67.2608 57.2754L70.3858 60.6689C71.4844 61.9141 73.0469 62.6465 74.7071 62.7197C76.3672 62.8174 77.9786 62.2314 79.2237 61.1084C80.4444 59.9853 81.1768 58.4228 81.25 56.7627C81.3233 55.1269 80.7374 53.4912 79.6143 52.2705L76.4893 48.8525C69.4825 41.1377 59.5948 37.4268 49.8047 37.5ZM50 62.5C46.8018 62.5 43.6036 63.7207 41.1622 66.1621C36.2793 71.0449 36.2793 78.9551 41.1622 83.8379C46.045 88.7207 53.9551 88.7207 58.8379 83.8379C63.7207 78.9551 63.7207 71.0449 58.8379 66.1621C56.3965 63.7207 53.1983 62.5 50 62.5Z"
        fill="#1C274C" />
</svg>