<svg width="100" height="100" viewBox="0 0 100 100" fill="none" xmlns="http://www.w3.org/2000/svg">
<path d="M63.5 8.33331H47.2742C39.9233 8.33327 34.1007 8.33319 29.5439 8.94831C24.8542 9.58136 21.0584 10.9151 18.065 13.9206C15.0715 16.9261 13.743 20.7371 13.1125 25.4457C12.4999 30.0208 12.5 35.8667 12.5 43.2471V67.5704C12.5 73.8541 16.3331 79.2391 21.7799 81.4966C21.4995 77.7075 21.4998 72.3904 21.5 67.9666V47.49V47.0933C21.4997 41.7529 21.4994 37.1518 21.9928 33.4671C22.5216 29.5182 23.7141 25.733 26.7721 22.6627C29.83 19.5924 33.6002 18.3952 37.5333 17.8643C41.2032 17.3689 45.7862 17.3691 51.105 17.3694L51.5 17.3695H63.5L63.895 17.3694C69.2137 17.3691 73.7867 17.3689 77.4567 17.8643C75.2612 12.2824 69.84 8.33331 63.5 8.33331Z" fill="#1C274C"/>
<path fill-rule="evenodd" clip-rule="evenodd" d="M31.0152 26.9216C27.5005 30.4504 27.5005 36.13 27.5005 47.4892V67.5696C27.5005 78.9288 27.5005 84.6083 31.0152 88.1371C34.5299 91.6658 40.1868 91.6658 51.5005 91.6658H63.5005C74.8142 91.6658 80.4709 91.6658 83.9859 88.1371C87.5005 84.6083 87.5005 78.9288 87.5005 67.5697V67.5696V47.4892V47.4891C87.5005 36.13 87.5005 30.4504 83.9859 26.9216C80.4709 23.3928 74.8142 23.3928 63.5005 23.3928H51.5005C40.1868 23.3928 34.5299 23.3928 31.0152 26.9216ZM57.1943 43.0156H47.5508V77H52.4336V64.5488H56.7549C57.5361 67.9831 59.0579 70.8314 61.3203 73.0938C63.8919 75.6979 67.0088 77 70.6709 77H71.7695V72.2637C71.3464 72.3613 70.6139 72.3939 69.5723 72.3613C68.9538 72.3288 68.1888 72.0846 67.2773 71.6289C64.5104 70.278 62.5492 67.8203 61.3936 64.2559C64.193 63.735 66.3903 62.6445 67.9854 60.9844C68.8154 60.1217 69.4583 59.0882 69.9141 57.8838C70.3861 56.6794 70.6221 55.2064 70.6221 53.4648C70.6221 51.707 70.2884 50.1283 69.6211 48.7285C67.7656 44.9199 63.6234 43.0156 57.1943 43.0156ZM63.4199 58.9336C62.0039 60.0729 59.8229 60.6426 56.877 60.6426H52.4336V46.9219H57.292C58.7731 46.9219 60.0345 47.0846 61.0762 47.4102C64.0547 48.3379 65.5439 50.4049 65.5439 53.6113C65.5439 56.0202 64.8359 57.7943 63.4199 58.9336Z" fill="#1C274C"/>
</svg>
