<svg width="100" height="100" viewBox="0 0 100 100" fill="none" xmlns="http://www.w3.org/2000/svg">
<path d="M63.5 8.33331H47.2742C39.9233 8.33327 34.1007 8.33319 29.5439 8.94831C24.8542 9.58136 21.0584 10.9151 18.065 13.9206C15.0715 16.9261 13.743 20.7371 13.1125 25.4457C12.4999 30.0208 12.5 35.8667 12.5 43.2471V67.5704C12.5 73.8541 16.3331 79.2391 21.7799 81.4966C21.4995 77.7075 21.4998 72.3904 21.5 67.9666V47.49V47.0933C21.4997 41.7529 21.4994 37.1518 21.9928 33.4671C22.5216 29.5182 23.7141 25.733 26.7721 22.6627C29.83 19.5924 33.6002 18.3952 37.5333 17.8643C41.2032 17.3689 45.7862 17.3691 51.105 17.3694L51.5 17.3695H63.5L63.895 17.3694C69.2137 17.3691 73.7867 17.3689 77.4567 17.8643C75.2612 12.2824 69.84 8.33331 63.5 8.33331Z" fill="#1C274C"/>
<path fill-rule="evenodd" clip-rule="evenodd" d="M31.0152 26.9216C27.5005 30.4504 27.5005 36.13 27.5005 47.4892V67.5696C27.5005 78.9288 27.5005 84.6083 31.0152 88.1371C34.5299 91.6658 40.1868 91.6658 51.5005 91.6658H63.5005C74.8142 91.6658 80.4709 91.6658 83.9859 88.1371C87.5005 84.6083 87.5005 78.9288 87.5005 67.5697V67.5696V47.4892V47.4891C87.5005 36.13 87.5005 30.4504 83.9859 26.9216C80.4709 23.3928 74.8142 23.3928 63.5005 23.3928H51.5005C40.1868 23.3928 34.5299 23.3928 31.0152 26.9216ZM45.915 43.0156H42.79V77H47.6729V51.1455L49.1621 53.0986L58.0244 63.4014L66.8867 53.0742L68.3271 51.1211V77H73.21V43.0156H70.085L58.0244 56.9316L45.915 43.0156Z" fill="#1C274C"/>
</svg>
