<svg width="95" height="95" viewBox="0 0 95 95" fill="none" xmlns="http://www.w3.org/2000/svg">
    <g clip-path="url(#clip0_466_24)">
        <path fill-rule="evenodd" clip-rule="evenodd"
            d="M22.3629 24.7826L31.8336 34.2532C33.4466 35.8663 33.4466 38.4815 31.8336 40.0946C30.2205 41.7075 27.6053 41.7075 25.9922 40.0946L9.47051 23.5728C7.85749 21.9598 7.85749 19.3446 9.47051 17.7315L25.9922 1.20978C27.6053 -0.403259 30.2205 -0.403259 31.8336 1.20978C33.4466 2.82281 33.4466 5.43805 31.8336 7.05111L22.3629 16.5217H47.4999C69.171 16.5217 86.739 34.0897 86.739 55.7609C86.739 77.432 69.171 95 47.4999 95C25.8287 95 8.26074 77.432 8.26074 55.7609C8.26074 53.4796 10.11 51.6304 12.3912 51.6304C14.6723 51.6304 16.5216 53.4796 16.5216 55.7609C16.5216 72.8695 30.391 86.7391 47.4999 86.7391C64.6085 86.7391 78.4781 72.8695 78.4781 55.7609C78.4781 38.652 64.6085 24.7826 47.4999 24.7826H22.3629ZM49.5651 37.1739V53.6957H57.826C60.1072 53.6957 61.9564 55.5449 61.9564 57.8261C61.9564 60.1073 60.1072 61.9565 57.826 61.9565H45.4347C43.1534 61.9565 41.3042 60.1073 41.3042 57.8261V37.1739C41.3042 34.8927 43.1534 33.0435 45.4347 33.0435C47.7159 33.0435 49.5651 34.8927 49.5651 37.1739Z"
            fill="#1C274C" />
    </g>
    <defs>
        <clipPath id="clip0_466_24">
            <rect width="95" height="95" fill="white" />
        </clipPath>
    </defs>
</svg>