<svg width="100" height="100" viewBox="0 0 100 100" fill="none" xmlns="http://www.w3.org/2000/svg">
    <path
        d="M36.0935 74.8176C35.2308 73.9601 33.8357 73.9601 32.973 74.8176C32.1103 75.675 32.1103 77.0616 32.973 77.919L35.4694 80.4002H25.3369C18.7471 80.4002 13.4055 75.073 13.4055 68.5416V61.1893C13.4055 59.9852 12.4142 59 11.2027 59C9.99123 59 9 59.9852 9 61.1893V68.5416C9 77.4994 16.3241 84.7788 25.3369 84.7788H35.4694L32.973 87.26C32.1103 88.1174 32.1103 89.504 32.973 90.3615C33.3952 90.7811 33.9642 91 34.5333 91C35.1023 91 35.653 90.7811 36.0935 90.3615L42.353 84.1403C43.2157 83.2828 43.2157 81.8962 42.353 81.0388L36.0935 74.8176Z"
        fill="#1C274C" />
    <path
        d="M75.6425 14.2249H65.5086L68.0054 11.744C68.8682 10.8867 68.8682 9.50036 68.0054 8.64301C67.1425 7.78566 65.7473 7.78566 64.8844 8.64301L58.6425 14.8633C58.2203 15.2829 58 15.8301 58 16.4139C58 16.9976 58.2387 17.5448 58.6425 17.9644L64.9028 24.1847C65.3251 24.6042 65.8942 24.8231 66.4633 24.8231C67.0324 24.8231 67.5832 24.6042 68.0238 24.1847C68.8866 23.3273 68.8866 21.941 68.0238 21.0837L65.527 18.6028H75.6609C82.2516 18.6028 87.594 23.9293 87.594 30.4597V37.811C87.594 39.015 88.5853 40 89.797 40C91.0086 40 92 39.015 92 37.811V30.4597C92 21.5032 84.6566 14.2249 75.6425 14.2249Z"
        fill="#1C274C" />
    <path fill-rule="evenodd" clip-rule="evenodd"
        d="M61.3896 50.4299C55.8668 50.4299 51.3896 54.9071 51.3896 60.4299V80.9768C51.3896 86.4996 55.8668 90.9768 61.3896 90.9768H81.9365C87.4593 90.9768 91.9365 86.4996 91.9365 80.9768V60.4299C91.9365 54.9071 87.4593 50.4299 81.9365 50.4299H61.3896ZM65.2373 62.307H57.6787V75.4222H65.4424V74.0062H59.3388V69.2406H64.3193V67.8246H59.3388V63.7035H65.2373V62.307ZM69.417 65.7054H68.0596V75.4222H69.7002V68.3812C70.195 67.8864 70.6344 67.5153 71.0185 67.2679C71.4026 67.014 71.8486 66.8871 72.3564 66.8871C73.001 66.8871 73.4697 67.0889 73.7627 67.4925C74.0556 67.8962 74.2021 68.5602 74.2021 69.4847V75.4222H75.8428V69.2601C75.8428 68.0101 75.6051 67.0661 75.1299 66.4281C74.6546 65.7835 73.9059 65.4613 72.8838 65.4613C72.2002 65.4613 71.6012 65.6175 71.0869 65.93C70.5726 66.2425 70.0843 66.6332 69.6221 67.1019H69.5635L69.417 65.7054ZM80.4521 78.3031C79.9508 77.9971 79.7002 77.5837 79.7002 77.0628C79.7002 76.7829 79.7816 76.5029 79.9443 76.223C80.1071 75.9431 80.361 75.6761 80.706 75.4222C80.9209 75.4873 81.1357 75.5296 81.3506 75.5492C81.5719 75.5687 81.777 75.5785 81.9658 75.5785H83.6455C84.2835 75.5785 84.7685 75.6664 85.1006 75.8421C85.4391 76.0179 85.6084 76.3304 85.6084 76.7796C85.6084 77.0335 85.5335 77.2809 85.3838 77.5218C85.2405 77.7627 85.0355 77.971 84.7685 78.1468C84.5016 78.3291 84.1761 78.4756 83.792 78.5863C83.4144 78.7035 82.9912 78.7621 82.5224 78.7621C81.6435 78.7621 80.9534 78.6091 80.4521 78.3031ZM78.6455 76.096C78.3916 76.4737 78.2646 76.8675 78.2646 77.2777C78.2646 77.7074 78.359 78.0817 78.5478 78.4007C78.7431 78.7197 79.0166 78.9932 79.3681 79.221C79.7262 79.4489 80.1494 79.6182 80.6377 79.7289C81.1325 79.846 81.6826 79.9046 82.2881 79.9046C83.0433 79.9046 83.7236 79.8135 84.3291 79.6312C84.9411 79.4489 85.4586 79.2048 85.8818 78.8988C86.3115 78.5928 86.637 78.2347 86.8584 77.8246C87.0862 77.4209 87.2002 76.9945 87.2002 76.5453C87.2002 75.7315 86.917 75.1423 86.3506 74.7777C85.7842 74.4066 84.9346 74.221 83.8017 74.221H81.9267C81.2562 74.221 80.8004 74.1234 80.5596 73.9281C80.3252 73.7263 80.208 73.4723 80.208 73.1664C80.208 72.8994 80.2666 72.6748 80.3838 72.4925C80.5075 72.3102 80.654 72.1475 80.8232 72.0043C81.0511 72.1084 81.292 72.1931 81.5459 72.2582C81.7998 72.3168 82.0472 72.346 82.2881 72.346C82.7763 72.346 83.2386 72.2647 83.6748 72.1019C84.111 71.9391 84.4886 71.7145 84.8076 71.4281C85.1266 71.1416 85.3773 70.7901 85.5596 70.3734C85.7484 69.9502 85.8428 69.4782 85.8428 68.9574C85.8428 68.5472 85.7646 68.1696 85.6084 67.8246C85.4586 67.4795 85.2698 67.1931 85.042 66.9652H87.0439V65.7054H83.665C83.4762 65.6338 83.2646 65.5752 83.0303 65.5296C82.8024 65.4841 82.555 65.4613 82.2881 65.4613C81.7933 65.4613 81.3213 65.5427 80.8721 65.7054C80.4293 65.8617 80.0387 66.0895 79.7002 66.389C79.3681 66.6885 79.1045 67.0531 78.9092 67.4828C78.7204 67.9059 78.626 68.3845 78.626 68.9183C78.626 69.5108 78.7562 70.0316 79.0166 70.4808C79.277 70.9235 79.5667 71.2783 79.8857 71.5453V71.6234C79.6318 71.7992 79.3909 72.0401 79.1631 72.346C78.9352 72.652 78.8213 73.0101 78.8213 73.4203C78.8213 73.8109 78.9059 74.1364 79.0752 74.3968C79.2444 74.6507 79.4463 74.8526 79.6806 75.0023V75.0804C79.2444 75.3864 78.8994 75.725 78.6455 76.096ZM83.0693 71.0863C82.8284 71.1904 82.568 71.2425 82.2881 71.2425C82.0081 71.2425 81.7444 71.1904 81.4971 71.0863C81.2497 70.9756 81.0283 70.8226 80.833 70.6273C80.6377 70.4255 80.4879 70.1813 80.3838 69.8949C80.2796 69.6084 80.2275 69.2829 80.2275 68.9183C80.2275 68.2022 80.4261 67.6488 80.8232 67.2582C81.2269 66.861 81.7151 66.6625 82.2881 66.6625C82.861 66.6625 83.346 66.861 83.7431 67.2582C84.1468 67.6488 84.3486 68.2022 84.3486 68.9183C84.3486 69.2829 84.2933 69.6084 84.1826 69.8949C84.0784 70.1813 83.9287 70.4255 83.7334 70.6273C83.5381 70.8226 83.3167 70.9756 83.0693 71.0863Z"
        fill="#1C274C" />
    <rect x="11.25" y="10.25" width="36.0468" height="36.0468" rx="7.75" stroke="#1C274C"
        stroke-width="4.5" />
    <path
        d="M16.9687 35.0059V19.1152C16.9687 18.5586 17.0625 18.0488 17.25 17.5859C17.6133 16.6484 18.2637 15.957 19.2012 15.5117C19.7109 15.2891 20.2763 15.1777 20.8974 15.1777H25.4326C26.7627 15.1777 27.791 15.7227 28.5176 16.8125C28.9336 17.4512 29.1416 18.1807 29.1416 19.001V19.2734C29.1416 19.7246 28.9131 19.9502 28.456 19.9502C28.0049 19.9502 27.7793 19.7246 27.7793 19.2734V19.001C27.7793 18.3037 27.6592 17.832 27.4189 17.5859C27.2549 17.3047 26.9648 17.0586 26.5488 16.8477C26.1328 16.6309 25.7607 16.5225 25.4326 16.5225H20.8974C20.1006 16.5225 19.4707 16.7598 19.0078 17.2344C18.5449 17.7031 18.3135 18.3301 18.3135 19.1152L18.2959 35.0059C18.2959 35.8496 18.5654 36.5205 19.1045 37.0186C19.4853 37.3643 19.7666 37.5752 19.9482 37.6514C20.1357 37.7275 20.458 37.7656 20.915 37.7656H25.0371C25.9453 37.7656 26.6191 37.4961 27.0586 36.957C27.5215 36.4883 27.7529 35.8672 27.7529 35.0938V30.2246C27.7529 29.7969 27.9756 29.583 28.4209 29.583C28.8721 29.583 29.0976 29.7969 29.0976 30.2246V35.0938C29.0976 35.6914 29.0127 36.2012 28.8428 36.623C28.6787 37.0449 28.4121 37.458 28.0429 37.8623C27.6797 38.2666 27.2754 38.5742 26.8301 38.7852C26.3437 39.002 25.7461 39.1104 25.0371 39.1104H20.915C19.831 39.1104 18.9023 38.7178 18.1289 37.9326C17.3554 37.1475 16.9687 36.1719 16.9687 35.0059ZM29.6338 27.3857C29.6338 28.6748 29.1767 29.7969 28.2627 30.752C27.3545 31.707 26.2529 32.1846 24.958 32.1846C23.6982 32.1846 22.6113 31.707 21.6972 30.752C20.789 29.7969 20.3349 28.6748 20.3349 27.3857C20.3349 25.5342 21.1347 24.0723 22.7344 23L23.0683 22.9209C23.4785 22.9209 23.707 23.1494 23.7539 23.6064C23.7539 23.8174 23.6426 23.9932 23.4199 24.1338C22.8984 24.4619 22.4765 24.9307 22.1543 25.54C21.832 26.1436 21.6709 26.7559 21.6709 27.377L21.7588 28.0625L21.917 28.5986C22.6318 27.6025 23.6455 27.1045 24.958 27.1045C26.3408 27.1045 27.3867 27.585 28.0957 28.5459C28.2304 28.2236 28.2978 27.8369 28.2978 27.3857C28.2978 26.0088 27.7031 24.9248 26.5137 24.1338C26.3496 24.0459 26.2529 23.8818 26.2236 23.6416C26.2119 23.2314 26.4258 22.9912 26.8652 22.9209L27.1465 23C27.9199 23.4512 28.5263 24.0752 28.9658 24.8721C29.4111 25.6689 29.6338 26.5068 29.6338 27.3857ZM27.3398 29.7412C26.7422 28.8623 25.9482 28.4229 24.958 28.4229C24.4658 28.4229 24.0381 28.5371 23.6748 28.7656C23.3115 28.9883 22.9775 29.3311 22.6728 29.7939C23.2705 30.4971 24.0322 30.8486 24.958 30.8486C25.9658 30.8486 26.7597 30.4795 27.3398 29.7412ZM40.3652 29.1348C40.3652 30.1543 40.0605 30.9277 39.4512 31.4551C39.2461 31.6016 38.9062 31.748 38.4316 31.8945C38.1445 31.959 37.916 32.0088 37.7461 32.0439V38.5479C37.7461 39.0049 37.5146 39.2334 37.0517 39.2334C36.8818 39.2334 36.7324 39.1689 36.6035 39.04C36.4746 38.9111 36.4101 38.7471 36.4101 38.5479L36.4277 32.0967L35.5312 32.1406C34.6992 32.1289 34.0898 32.0703 33.7031 31.9648C33.0586 31.7832 32.5547 31.4961 32.1914 31.1035C31.7988 30.5645 31.6025 29.9814 31.6025 29.3545C31.6025 28.8682 31.7373 28.4082 32.0068 27.9746C32.2471 27.6406 32.5342 27.3975 32.8681 27.2451C33.2021 27.0928 33.5566 27.0166 33.9316 27.0166C34.3066 27.0166 34.6758 27.0811 35.039 27.21C35.4023 27.333 35.751 27.5088 36.0849 27.7373C36.4599 28.001 36.7851 28.376 37.0605 28.8623C37.2539 29.208 37.4092 29.5508 37.5263 29.8906C37.6728 30.2949 37.7519 30.6172 37.7637 30.8574C37.8808 30.8516 38.0361 30.8018 38.2295 30.708C38.4873 30.5498 38.6865 30.3623 38.8271 30.1455C38.9678 29.9287 39.0469 29.627 39.0644 29.2402C39.0234 28.959 38.8945 28.6543 38.6777 28.3262C38.4609 27.998 38.2119 27.7549 37.9306 27.5967C37.7021 27.4561 37.4619 27.3535 37.2099 27.2891C36.958 27.2246 36.6006 27.1309 36.1377 27.0078C35.6572 26.8789 35.2383 26.7354 34.8808 26.5771C34.5293 26.4131 34.2392 26.1406 34.0107 25.7598C33.8584 25.5195 33.7822 25.2266 33.7822 24.8809C33.7822 24.4297 33.9551 24.0107 34.3008 23.624C34.7519 23.167 35.3379 22.9385 36.0586 22.9385C36.416 22.9385 36.7383 22.9795 37.0254 23.0615C37.3125 23.1436 37.5937 23.3018 37.8691 23.5361C38.2441 23.8818 38.4697 24.1074 38.5459 24.2129C38.6045 24.459 38.5576 24.6816 38.4053 24.8809C38.2588 25.0742 38.0478 25.1533 37.7724 25.1182C37.6435 25.1182 37.3945 24.9336 37.0254 24.5645C36.8144 24.3945 36.4922 24.3096 36.0586 24.3096C35.6894 24.3096 35.4228 24.3916 35.2588 24.5557C35.165 24.708 35.1181 24.8311 35.1181 24.9248L35.1445 25.0918C35.209 25.2559 35.3672 25.3994 35.6191 25.5225C35.8711 25.6396 36.1816 25.7422 36.5508 25.8301C36.9199 25.9121 37.2832 25.9971 37.6406 26.085C37.998 26.1729 38.3174 26.3076 38.5986 26.4893C39.0849 26.7881 39.4834 27.1689 39.7939 27.6318C40.1045 28.0947 40.2949 28.5957 40.3652 29.1348ZM36.5332 30.9629C36.5273 30.7754 36.5156 30.6406 36.498 30.5586C36.4863 30.4707 36.4512 30.377 36.3926 30.2773C36.2988 30.043 36.1289 29.7471 35.8828 29.3896C35.6836 29.1494 35.5254 28.9736 35.4082 28.8623C34.9043 28.5283 34.4004 28.3467 33.8965 28.3174C33.5273 28.3467 33.2754 28.4727 33.1406 28.6953C33.0586 28.8418 33.0029 28.9766 32.9736 29.0996C32.9502 29.2168 32.9385 29.3193 32.9385 29.4072C32.9385 29.7119 33.0439 29.999 33.2549 30.2686C33.3662 30.415 33.665 30.5645 34.1513 30.7168C34.6435 30.8691 35.124 30.9453 35.5928 30.9453L36.5332 30.9629ZM39.3105 17.5771C39.3105 17.9814 39.0762 18.2305 38.6074 18.3242C38.2148 18.3242 38.0185 18.1367 38.0185 17.7617C38.0185 17.3867 37.8017 17.082 37.3681 16.8477C36.9346 16.6074 36.542 16.4873 36.1904 16.4873C35.2471 16.4873 34.6963 16.9268 34.5381 17.8057C34.5381 18.626 34.875 19.3379 35.5488 19.9414C35.8301 20.1992 36.2666 20.4746 36.8584 20.7676L37.7285 21.1982C37.9277 21.292 38.0273 21.4736 38.0273 21.7432C38.0273 22.1416 37.7959 22.3818 37.333 22.4639L37.0166 22.3496L35.9267 21.7959C34.8896 21.2393 34.1543 20.5625 33.7207 19.7656C33.4043 19.1914 33.2461 18.4795 33.2461 17.6299C33.3691 16.8916 33.706 16.2998 34.2568 15.8545C34.8017 15.4033 35.4463 15.1777 36.1904 15.1777C36.9463 15.1777 37.626 15.3975 38.2295 15.8369C38.833 16.2705 39.1933 16.8506 39.3105 17.5771Z"
        fill="#1C274C" />
</svg>