<svg width="100" height="100" viewBox="0 0 100 100" fill="none" xmlns="http://www.w3.org/2000/svg">
    <g clip-path="url(#clip0_513_26)">
        <path
            d="M50 12.4512C33.6426 12.4512 17.2608 18.2861 5.02935 30.0049L1.92876 33.0078C-0.561476 35.376 -0.634715 39.331 1.73345 41.8213C4.12602 44.3115 8.0811 44.3848 10.5713 41.9922L13.6963 39.0137C32.9834 20.5566 67.0166 20.5566 86.3038 39.0137L89.4288 41.9922C91.919 44.3848 95.8741 44.3115 98.2666 41.8213C100.635 39.331 100.562 35.376 98.0713 33.0078L94.9707 30.0049C82.7393 18.2861 66.3575 12.4512 50 12.4512ZM49.8047 37.5C39.9903 37.5732 30.2491 41.4307 23.5108 48.8281L20.3858 52.2705C18.042 54.8096 18.2129 58.7891 20.7764 61.1084C23.3399 63.4277 27.295 63.2324 29.6143 60.6689L32.7393 57.2754C40.503 48.7549 57.6905 47.9492 66.4795 56.4697C67.2364 56.3232 67.9932 56.25 68.75 56.25C72.0704 56.25 75.2442 57.5684 77.5879 59.9121L78.9795 61.3037C79.0528 61.2305 79.126 61.1816 79.2237 61.1084C81.7627 58.7891 81.9581 54.8096 79.6143 52.2705L76.4893 48.8281C69.4581 41.1377 59.5948 37.4268 49.8047 37.5ZM50 62.5C46.8018 62.5 43.6036 63.7207 41.1622 66.1621C36.2793 71.0449 36.2793 78.9551 41.1622 83.8379C46.045 88.7207 53.9551 88.7207 58.8379 83.8379C60.1563 82.5195 61.084 81.0059 61.6944 79.3701L59.9122 77.5879C56.4454 74.1211 55.4932 69.043 56.9825 64.6484C54.8829 63.2324 52.4415 62.5 50 62.5Z"
            fill="#2E3436" fill-opacity="0.34902" />
        <path
            d="M68.75 62.5C67.0898 62.5 65.5029 63.1592 64.3311 64.3311C61.8896 66.7725 61.8896 70.7275 64.3311 73.1689L72.4121 81.25L64.3311 89.3311C61.8896 91.7725 61.8896 95.7275 64.3311 98.1689C66.7725 100.61 70.7275 100.61 73.1689 98.1689L81.25 90.0879L89.3311 98.1689C91.7725 100.61 95.7275 100.61 98.1689 98.1689C100.61 95.7275 100.61 91.7725 98.1689 89.3311L90.0879 81.25L98.1689 73.1689C100.61 70.7275 100.61 66.7725 98.1689 64.3311C96.9971 63.1592 95.4102 62.5 93.75 62.5C92.0898 62.5 90.5029 63.1592 89.3311 64.3311L81.25 72.4121L73.1689 64.3311C71.9971 63.1592 70.4102 62.5 68.75 62.5Z"
            fill="#1C274C" />
    </g>
    <defs>
        <clipPath id="clip0_513_26">
            <rect width="100" height="100" fill="white" />
        </clipPath>
    </defs>
</svg>