<svg width="100" height="100" viewBox="0 0 100 100" fill="none" xmlns="http://www.w3.org/2000/svg">
    <path
        d="M50 70.8396C55.7555 70.8396 60.4213 75.5054 60.4213 81.2608C60.4213 87.0163 55.7555 91.6821 50 91.6821C44.2446 91.6821 39.5787 87.0163 39.5787 81.2608C39.5787 75.5054 44.2446 70.8396 50 70.8396ZM49.9959 8.34351C58.9138 8.34351 66.1434 15.5729 66.1434 24.4909C66.1434 36.297 62.0184 51.7992 59.7459 59.4817C58.4559 63.8417 54.4405 66.6829 50.0025 66.6829C45.555 66.6829 41.5353 63.8296 40.2498 59.4617L39.3229 56.2232C37.0113 47.9144 33.8486 34.7129 33.8486 24.4909C33.8486 15.5729 41.078 8.34351 49.9959 8.34351Z"
        fill="#1C274C" />
</svg>