<svg width="100" height="100" viewBox="0 0 100 100" fill="none" xmlns="http://www.w3.org/2000/svg">
    <path
        d="M37.875 24.75H62.875C64.75 24.75 66 23.5 66 21.625V15.375C66 10.0625 61.9375 6 56.625 6H44.125C38.8125 6 34.75 10.0625 34.75 15.375V21.625C34.75 23.5 36 24.75 37.875 24.75Z"
        fill="#1C274C" />
    <path
        d="M72.25 37.25C73.5 37.25 74.75 37.5625 76 38.1875L80.6875 41.9375L84.75 46V27.875C84.75 20.375 79.125 13.8125 71.9375 12.5625C72.25 13.5 72.25 14.4375 72.25 15.375V21.625C72.25 26.9375 68.1875 31 62.875 31H37.875C32.5625 31 28.5 26.9375 28.5 21.625V15.375C28.5 14.4375 28.5 13.5 28.8125 12.5625C21.625 13.8125 16 20.375 16 27.875V77.875C16 86.625 22.875 93.5 31.625 93.5H37.875V46.625C37.875 41.3125 41.9375 37.25 47.25 37.25H72.25Z"
        fill="#1C274C" />
    <rect x="20.7549" y="31.5" width="64" height="62" rx="15" fill="#1C274C" />
</svg>