<svg width="100" height="100" viewBox="0 0 100 100" fill="none" xmlns="http://www.w3.org/2000/svg">
  <path fill-rule="evenodd" clip-rule="evenodd"
    d="M36.905 12.5H77.25C79.5512 12.5 81.4167 14.3655 81.4167 16.6667C81.4167 18.9679 79.5512 20.8333 77.25 20.8333H47.9167V79.1667H62.9167C67.6525 79.1667 70.9537 79.1633 73.5242 78.9533C76.0454 78.7475 77.4942 78.3633 78.5917 77.8042C80.9437 76.6058 82.8558 74.6937 84.0542 72.3417C84.6133 71.2442 84.9975 69.7954 85.2033 67.2742C85.4133 64.7037 85.4167 61.4025 85.4167 56.6667V28.9167C85.4167 26.6154 87.2821 24.75 89.5833 24.75C91.8846 24.75 93.75 26.6154 93.75 28.9167V56.845C93.75 61.3608 93.75 65.0033 93.5092 67.9525C93.2608 70.9896 92.7367 73.6571 91.4792 76.125C89.4821 80.045 86.295 83.2321 82.375 85.2292C79.9071 86.4867 77.2396 87.0108 74.2025 87.2592C71.2533 87.5 67.6108 87.5 63.095 87.5H36.9049C32.3891 87.5 28.7469 87.5 25.7974 87.2592C22.7605 87.0108 20.0931 86.4867 17.6252 85.2292C13.7052 83.2321 10.518 80.045 8.52071 76.125C7.26325 73.6571 6.73904 70.9896 6.49092 67.9525C6.24992 65.0029 6.24996 61.3608 6.25 56.845V43.155C6.24996 38.6392 6.24992 34.9969 6.49092 32.0474C6.73904 29.0105 7.26325 26.3431 8.52071 23.8752C10.518 19.9552 13.7052 16.768 17.6252 14.7707C20.0931 13.5133 22.7605 12.989 25.7974 12.7409C28.7469 12.4999 32.3892 12.5 36.905 12.5ZM39.5833 79.1667V20.8333H37.0833C32.3475 20.8333 29.0462 20.8366 26.476 21.0466C23.9545 21.2526 22.5058 21.6366 21.4085 22.1958C19.0564 23.3942 17.1442 25.3064 15.9458 27.6585C15.3866 28.7558 15.0026 30.2045 14.7966 32.726C14.5866 35.2962 14.5833 38.5975 14.5833 43.3333V56.6667C14.5833 61.4025 14.5866 64.7037 14.7966 67.2742C15.0026 69.7954 15.3866 71.2442 15.9458 72.3417C17.1442 74.6937 19.0564 76.6058 21.4085 77.8042C22.5058 78.3633 23.9545 78.7475 26.476 78.9533C29.0462 79.1633 32.3475 79.1667 37.0833 79.1667H39.5833ZM20.8333 35.4167C20.8333 33.1155 22.6988 31.25 25 31.25H29.1667C31.4679 31.25 33.3333 33.1155 33.3333 35.4167C33.3333 37.7179 31.4679 39.5833 29.1667 39.5833H25C22.6988 39.5833 20.8333 37.7179 20.8333 35.4167ZM20.8333 50C20.8333 47.6988 22.6988 45.8333 25 45.8333H29.1667C31.4679 45.8333 33.3333 47.6988 33.3333 50C33.3333 52.3012 31.4679 54.1667 29.1667 54.1667H25C22.6988 54.1667 20.8333 52.3012 20.8333 50Z"
    fill="#1C274C" />
</svg>