<svg width="100" height="100" viewBox="0 0 100 100" fill="none" xmlns="http://www.w3.org/2000/svg">
    <path
        d="M66.9219 40.9713C66.9219 39.6461 66.7697 38.3578 66.4811 37.1203L70.1191 34.1646L65.9541 26.9494L61.5709 28.6248C59.6984 26.8691 57.4264 25.5352 54.9062 24.7727L54.1652 20.1436H45.8344L45.0941 24.7727C42.573 25.535 40.3008 26.8691 38.4287 28.6248L34.0467 26.9494L29.8809 34.1643L33.5187 37.1199C33.2314 38.3574 33.0781 39.6457 33.0781 40.9709C33.0781 42.2949 33.2314 43.5844 33.5187 44.8211L29.8809 47.7768L34.0467 54.9914L38.4291 53.316C40.3016 55.0725 42.5736 56.4068 45.0945 57.1689L45.8348 61.7969H54.1656L54.9066 57.1689C57.4268 56.4066 59.6992 55.0725 61.5713 53.316L65.9545 54.9914L70.1195 47.7768L66.4814 44.8211C66.7697 43.5848 66.9219 42.2955 66.9219 40.9713ZM49.9998 47.4818C46.4039 47.4818 43.4889 44.5668 43.4889 40.9709C43.4889 37.375 46.4039 34.46 49.9998 34.46C53.5957 34.46 56.5107 37.375 56.5107 40.9709C56.5107 44.5668 53.5957 47.4818 49.9998 47.4818Z"
        fill="#1C274C" fill-opacity="0.2" />
    <path
        d="M54.1651 64.6168H45.8342C44.4493 64.6168 43.2692 63.6107 43.0505 62.2432L42.5741 59.2648C40.8952 58.581 39.3075 57.6629 37.8731 56.5471L35.0524 57.6254C33.7588 58.1201 32.2973 57.6014 31.6047 56.4019L27.4389 49.1873C26.7463 47.9879 27.028 46.4631 28.1026 45.5896L30.445 43.6865C30.3212 42.7879 30.2587 41.8795 30.2587 40.9715C30.2587 40.0633 30.3212 39.1549 30.4452 38.256L28.1026 36.3529C27.0278 35.4797 26.7463 33.9549 27.4389 32.7557L31.6047 25.5408C32.2977 24.3414 33.759 23.8228 35.0524 24.3172L37.8737 25.3955C39.3077 24.2801 40.8956 23.3621 42.5741 22.6785L43.0505 19.6992C43.2692 18.3314 44.4489 17.3254 45.8342 17.3254H54.1651C55.5501 17.3254 56.7297 18.3312 56.9489 19.6986L57.4258 22.6785C59.1044 23.3621 60.6917 24.2799 62.1256 25.3955L64.9477 24.317C66.2417 23.8228 67.703 24.3412 68.3954 25.541L72.5604 32.7558C73.2528 33.9553 72.9713 35.4799 71.8965 36.3531L69.5546 38.2558C69.6784 39.1535 69.7407 40.0617 69.7407 40.9719C69.7407 41.882 69.6784 42.79 69.5546 43.6871L71.8965 45.5898C72.9713 46.4631 73.2528 47.9877 72.5604 49.1871L68.3954 56.4017C67.7028 57.6012 66.2417 58.1197 64.9477 57.6258L62.1258 56.5473C60.6921 57.6631 59.1042 58.5812 57.4254 59.2652L56.9485 62.2441C56.7296 63.6109 55.5499 64.6168 54.1651 64.6168ZM48.238 58.9787H51.7616L52.1227 56.724C52.2932 55.6584 53.0569 54.784 54.0901 54.4713C56.1465 53.8492 58.0663 52.7387 59.6424 51.2605C60.4296 50.5221 61.569 50.2982 62.5776 50.6832L64.7153 51.5002L66.4766 48.4492L64.704 47.0094C63.8671 46.3295 63.4913 45.2314 63.7362 44.181C63.9797 43.1371 64.1032 42.0572 64.1032 40.9713C64.1032 39.8853 63.9797 38.8053 63.7362 37.7601C63.4913 36.7101 63.8671 35.6121 64.704 34.9322L66.4766 33.4924L64.7153 30.4412L62.5776 31.2582C61.5698 31.643 60.4303 31.4195 59.643 30.6814C58.0667 29.2031 56.1463 28.093 54.0905 27.4711C53.0577 27.1588 52.2936 26.284 52.1231 25.2183L51.762 22.9627H48.2385L47.878 25.218C47.7077 26.2838 46.9434 27.1588 45.9104 27.4711C43.854 28.093 41.9337 29.2031 40.3573 30.681C39.5702 31.4193 38.4311 31.6433 37.4225 31.2578L35.2858 30.4412L33.5239 33.4924L35.2962 34.9322C36.1323 35.6115 36.5081 36.7078 36.2647 37.7572C36.021 38.8082 35.8971 39.8894 35.8971 40.9711C35.8971 42.0527 36.0206 43.1336 36.2645 44.1836C36.5081 45.233 36.1323 46.3297 35.2962 47.009L33.5239 48.4488L35.2858 51.4998L37.4225 50.6832C38.4303 50.298 39.571 50.5217 40.3579 51.2605C41.9335 52.7389 43.8538 53.849 45.9106 54.4711C46.9438 54.7834 47.7077 55.6584 47.878 56.724L48.238 58.9787ZM49.9995 50.301C44.8547 50.301 40.6694 46.1154 40.6694 40.9707C40.6694 35.826 44.8547 31.6406 49.9995 31.6406C55.1442 31.6406 59.3296 35.826 59.3296 40.9707C59.3296 46.1154 55.1442 50.301 49.9995 50.301ZM49.9995 37.2787C47.9635 37.2787 46.3075 38.9349 46.3075 40.9707C46.3075 43.0064 47.9635 44.6631 49.9995 44.6631C52.0354 44.6631 53.6915 43.0068 53.6915 40.9707C53.6915 38.9349 52.0354 37.2787 49.9995 37.2787Z"
        fill="#1C274C" />
    <path
        d="M49.9996 92.1303C48.4428 92.1303 47.1807 90.8682 47.1807 89.3113V75.6488C47.1807 74.092 48.4428 72.8299 49.9996 72.8299C51.5564 72.8299 52.8186 74.092 52.8186 75.6488V89.3113C52.8186 90.8682 51.5566 92.1303 49.9996 92.1303Z"
        fill="#1C274C" />
    <path
        d="M37.0554 86.4791C35.4985 86.4791 34.2364 85.217 34.2364 83.6602V77.1758C27.3964 74.2629 21.5329 69.5371 17.1935 63.418C12.3612 56.6045 9.80713 48.5732 9.80713 40.1926C9.80693 18.0305 27.8372 0 49.9997 0C72.1622 0 90.1927 18.0305 90.1927 40.193C90.1927 53.9687 83.2569 66.6322 71.6396 74.0676C70.3288 74.9068 68.5853 74.5242 67.7456 73.2129C66.9063 71.9016 67.289 70.1582 68.6003 69.3189C78.5901 62.925 84.5546 52.0365 84.5546 40.193C84.5546 21.1393 69.0532 5.63789 49.9995 5.63789C30.9458 5.63789 15.445 21.1393 15.445 40.193C15.445 54.5996 24.5218 67.6307 38.0317 72.6189C39.139 73.0277 39.8743 74.0832 39.8743 75.2635V83.6604C39.8743 85.217 38.6122 86.4791 37.0554 86.4791Z"
        fill="#1C274C" />
    <path
        d="M37.0557 82.9449V88.5153C37.0557 91.7442 39.673 94.3617 42.9021 94.3617H57.0986C60.3275 94.3617 62.9451 91.7444 62.9451 88.5153V82.9449H37.0557Z"
        fill="#1C274C" fill-opacity="0.2" />
    <path
        d="M57.0981 97.1807H42.902C38.1238 97.1807 34.2363 93.2934 34.2363 88.5151V82.9447C34.2363 81.3879 35.4984 80.1258 37.0553 80.1258H62.9445C64.5014 80.1258 65.7635 81.3879 65.7635 82.9447V88.5151C65.7637 93.2936 61.8762 97.1807 57.0981 97.1807ZM39.8744 85.7639V88.5152C39.8744 90.1846 41.2326 91.5428 42.902 91.5428H57.0981C58.7674 91.5428 60.1256 90.1846 60.1256 88.5152V85.7639H39.8744Z"
        fill="#1C274C" />
    <path
        d="M56.0607 100H43.9391C42.3822 100 41.1201 98.7379 41.1201 97.1811C41.1201 95.6242 42.3822 94.3621 43.9391 94.3621H56.0607C57.6176 94.3621 58.8797 95.6242 58.8797 97.1811C58.8797 98.7379 57.6176 100 56.0607 100Z"
        fill="#1C274C" />
</svg>