<svg width="100" height="100" viewBox="0 0 100 100" fill="none" xmlns="http://www.w3.org/2000/svg">
    <path
        d="M65.625 75H34.375C32.7174 75 31.1277 75.6585 29.9556 76.8306C28.7835 78.0027 28.125 79.5924 28.125 81.25V87.5C28.125 89.1576 28.7835 90.7473 29.9556 91.9194C31.1277 93.0915 32.7174 93.75 34.375 93.75H65.625C67.2826 93.75 68.8723 93.0915 70.0444 91.9194C71.2165 90.7473 71.875 89.1576 71.875 87.5V81.25C71.875 79.5924 71.2165 78.0027 70.0444 76.8306C68.8723 75.6585 67.2826 75 65.625 75ZM65.625 87.5H34.375V81.25H65.625V87.5Z"
        fill="#1C274C" />
    <path
        d="M89.7092 44.6656L52.2092 7.16561C51.9192 6.87531 51.5747 6.64501 51.1956 6.48788C50.8165 6.33075 50.4102 6.24988 49.9998 6.24988C49.5895 6.24988 49.1831 6.33075 48.804 6.48788C48.4249 6.64501 48.0805 6.87531 47.7904 7.16561L10.2904 44.6656C9.85354 45.1027 9.55602 45.6594 9.4355 46.2655C9.31498 46.8716 9.37686 47.4998 9.61333 48.0708C9.8498 48.6417 10.2502 49.1297 10.764 49.4731C11.2778 49.8165 11.8819 49.9999 12.4998 50H28.1248V62.5C28.1267 64.157 28.7858 65.7456 29.9575 66.9173C31.1292 68.089 32.7178 68.7481 34.3748 68.75H65.6248C67.2817 68.7478 68.8702 68.0886 70.0418 66.9169C71.2134 65.7453 71.8726 64.1569 71.8748 62.5V50H87.4998C88.1178 49.9999 88.7218 49.8165 89.2356 49.4731C89.7494 49.1297 90.1498 48.6417 90.3863 48.0708C90.6228 47.4998 90.6847 46.8716 90.5641 46.2655C90.4436 45.6594 90.1461 45.1027 89.7092 44.6656ZM65.6248 43.75V62.5H34.3748V43.75H20.0439L49.9998 13.7941L79.9558 43.75H65.6248Z"
        fill="#1C274C" />
</svg>